<?xml version="1.0" encoding="iso-8859-1"?>
<!-- Generator: Adobe Illustrator 16.0.0, SVG Export Plug-In . SVG Version: 6.00 Build 0)  -->
<!DOCTYPE svg PUBLIC "-//W3C//DTD SVG 1.1//EN" "http://www.w3.org/Graphics/SVG/1.1/DTD/svg11.dtd">
<svg version="1.1" id="Capa_1" xmlns="http://www.w3.org/2000/svg" xmlns:xlink="http://www.w3.org/1999/xlink" x="0px" y="0px"
	 width="931.123px" height="931.123px" viewBox="0 0 931.123 931.123" style="enable-background:new 0 0 931.123 931.123;"
	 xml:space="preserve">
<g>
	<g>
		<path d="M887.917,295.997h-248.8c-2.2,0-4.3-0.6-6.2-1.7c-25.3-15.4-88.8-54.8-100.1-61.1c-10.9-6.1-20-11.6-32.8-11.6l-200.2,7.8
			c-15.2,0.6-28.9,9.3-36,22.7c-7.1,13.4-6.4,29.7,1.7,42.5l76.4,120.5l-44.899,49.699c-7,7.701-12.7,16.5-17,26l-43,95.2
			c-2.5,5.5-8.7,8.3-14.5,6.5l-157.5-49.399c-26.4-8.301-54.4,6.399-62.7,32.8c-8.3,26.399,6.4,54.399,32.8,62.7l210,65.8
			c5,1.6,10,2.3,15,2.3c19.2,0,37.3-11.1,45.6-29.4l47.4-105c3.3-7.3,12.6-9.399,18.7-4.199c23.1,19.6,73.399,60.899,96,79.399
			c5.899,4.8,5.899,13.8-0.101,18.601l-162,131c-21.5,17.399-24.8,48.899-7.399,70.3c9.899,12.2,24.3,18.5,38.899,18.5
			c11,0,22.2-3.601,31.4-11.101l221.599-179.399c11.7-9.5,18.5-23.8,18.5-38.9c0-15.1-6.8-29.399-18.6-38.899l-104.2-84.2
			c-5.399-4.4-6-12.5-1.2-17.5l117.2-125.101c6-6.399,14.3-10,23-10h263.7c23.7,0,42.9-19.399,42.5-43.2
			C930.717,314.397,911.217,295.997,887.917,295.997z M508.117,383.997c-17.1,29.9-57,44.7-89.7,41.9l0,0
			c9.601-13.601,10.601-32.3,1.101-47.2l-16.5-26l-8-12.7l-6.9-10.9c-5-7.8,0.4-18.1,9.7-18.4l48.1-1.9l-25.3,25.8
			c4.7-0.4,9.4-0.4,14.1-0.1c17.601,1.2,34.6,7,48.9,17.5C490.217,356.997,513.717,374.197,508.117,383.997z"/>
		<path d="M708.018,180.497c11-4.8,22.6-1.9,33.899-5c16.5-4.5,15.601-23.9,13.7-37.6c-2.1-15.4-7.6-30.6-15.5-44
			c-12.6-21.5-32.8-37.8-56.9-44.8c-54.3-15.8-112.1,18.2-128.899,75.8c-7,24.1-6.601,49.7,2.3,72.5c0.8,2.1,2.6,3.7,4.7,4.3
			l7.2,2.1c2,0.6,4.199,0.3,6-0.8c1-0.7,2.6-1.1,4.899-0.4c1.8,0.5,3.8,1.5,5.8,2.7c6.9,4.4,11.801,11,16.601,17.5
			c5.6,7.5,11.6,13.5,19.7,18.4c19.399,11.5,46.5,13.9,60.8-6.7c1.5-2.1,2.7-4.3,3.8-6.5c0.5-1,1.7-1.4,2.7-1
			c0.899,0.4,1.899,0.8,2.8,1.2s1.4,1.3,1.3,2.3c-0.5,3-1,6-1.399,9c-0.9,7.4-1.101,15.2,1.8,22.3c3,7.4,9.2,13.4,16,17.5
			c5.8,3.4,12,5,18.6,6c1.8,0.3,3.5-0.7,4.3-2.3c4.9-11.2,22.5-51.9,22.5-51.9c0.9-2.1,0.101-4.6-1.899-5.7l-55-32.3
			c-1.3-0.7-1.601-2.3-0.7-3.5C700.217,185.597,703.518,182.497,708.018,180.497z M632.117,196.097c-2.8,7-10.8,10.3-17.8,7.4
			c-7-2.9-10.3-10.8-7.4-17.8c2.9-7,10.8-10.3,17.8-7.4S635.018,189.197,632.117,196.097z"/>
	</g>
</g>
<g>
</g>
<g>
</g>
<g>
</g>
<g>
</g>
<g>
</g>
<g>
</g>
<g>
</g>
<g>
</g>
<g>
</g>
<g>
</g>
<g>
</g>
<g>
</g>
<g>
</g>
<g>
</g>
<g>
</g>
</svg>
